<svg width="80" height="80" viewBox="0 0 80 80" fill="none" xmlns="http://www.w3.org/2000/svg">
<g id="Library add" clip-path="url(#clip0_114_261)">
<path id="Vector" d="M13.3334 20H6.66675V66.6667C6.66675 70.3334 9.66675 73.3334 13.3334 73.3334H60.0001V66.6667H13.3334V20ZM66.6667 6.66669H26.6667C23.0001 6.66669 20.0001 9.66669 20.0001 13.3334V53.3334C20.0001 57 23.0001 60 26.6667 60H66.6667C70.3334 60 73.3334 57 73.3334 53.3334V13.3334C73.3334 9.66669 70.3334 6.66669 66.6667 6.66669ZM63.3334 36.6667H50.0001V50H43.3334V36.6667H30.0001V30H43.3334V16.6667H50.0001V30H63.3334V36.6667Z" fill="white"/>
</g>
<defs>
<clipPath id="clip0_114_261">
<rect width="80" height="80" fill="white"/>
</clipPath>
</defs>
</svg>
